<svg xmlns="http://www.w3.org/2000/svg" viewBox="0 0 960 960" width="960" height="960">
<g fill="none" stroke="#1f2530" stroke-width="36" stroke-linecap="round" stroke-linejoin="round">
<path d="M 174.2 532.0 L 175.0 524.6 L 177.5 517.4 L 181.6 510.4 L 187.3 503.7 L 194.4 497.6 L 202.9 492.0 L 410.7 372.0 L 420.4 367.1 L 431.0 363.0 L 442.5 359.7 L 454.6 357.4 L 467.2 355.9 L 480.0 355.4 L 492.8 355.9 L 505.4 357.4 L 517.5 359.7 L 529.0 363.0 L 539.6 367.1 L 549.3 372.0 L 757.1 492.0 L 765.6 497.6 L 772.7 503.7 L 778.4 510.4 L 782.5 517.4 L 785.0 524.6 L 785.8 532.0 L 785.8 688.0 L 785.0 695.4 L 782.5 702.6 L 778.4 709.6 L 772.7 716.3 L 765.6 722.4 L 757.1 728.0 L 549.3 848.0 L 539.6 852.9 L 529.0 857.0 L 517.5 860.3 L 505.4 862.6 L 492.8 864.1 L 480.0 864.6 L 467.2 864.1 L 454.6 862.6 L 442.5 860.3 L 431.0 857.0 L 420.4 852.9 L 410.7 848.0 L 202.9 728.0 L 194.4 722.4 L 187.3 716.3 L 181.6 709.6 L 177.5 702.6 L 175.0 695.4 L 174.2 688.0 Z"/>
<path d="M 757.1 492.0 L 765.6 497.6 L 772.7 503.7 L 778.4 510.4 L 782.5 517.4 L 785.0 524.6 L 785.8 532.0 L 785.0 539.4 L 782.5 546.6 L 778.4 553.6 L 772.7 560.3 L 765.6 566.4 L 757.1 572.0 L 549.3 692.0 L 539.6 696.9 L 529.0 701.0 L 517.5 704.3 L 505.4 706.6 L 492.8 708.1 L 480.0 708.6 L 467.2 708.1 L 454.6 706.6 L 442.5 704.3 L 431.0 701.0 L 420.4 696.9 L 410.7 692.0 L 202.9 572.0 L 194.4 566.4 L 187.3 560.3 L 181.6 553.6 L 177.5 546.6 L 175.0 539.4 L 174.2 532.0 L 175.0 524.6 L 177.5 517.4 L 181.6 510.4 L 187.3 503.7 L 194.4 497.6 L 202.9 492.0 L 410.7 372.0 L 420.4 367.1 L 431.0 363.0 L 442.5 359.7 L 454.6 357.4 L 467.2 355.9 L 480.0 355.4 L 492.8 355.9 L 505.4 357.4 L 517.5 359.7 L 529.0 363.0 L 539.6 367.1 L 549.3 372.0 Z"/>
<path d="M 216.7 654.0 L 230.6 662.0"/>
<path d="M 272.2 686.0 L 286.0 694.0"/>
<circle cx="417.6" cy="770.0" r="14" fill="#1f2530" stroke="none"/>
<path d="M 150 170 L 360 170 L 410 80 L 480 250 L 540 130 L 580 170 L 810 170"/>
</g>
</svg>
